<?xml version="1.0" encoding="UTF-8"?>
<svg enable-background="new 0 0 35.2 100" version="1.1" viewBox="0 0 35.2 100" xml:space="preserve" xmlns="http://www.w3.org/2000/svg">
<g transform="translate(0 -852.36)">
		<path d="m20.04 907.6c-1.56 0.51-2.85 1.37-3.87 2.58s-1.64 2.53-1.87 3.97c-0.22 1.43-0.04 2.85 0.55 4.26 0.59 1.4 1.7 2.53 3.32 3.4 0.38 0 0.62 0.16 0.72 0.48s-0.05 0.48-0.43 0.48c-1.56-0.32-2.93-0.97-4.11-1.96-2.2-1.82-3.41-4.16-3.63-7.03-0.13-1.43 0.01-2.82 0.41-4.16s0.95-2.57 1.65-3.68c0.86-1.18 1.88-2.2 3.06-3.06 0.06-0.06 0.25-0.21 0.55-0.43s0.6-0.43 0.88-0.62c0.29-0.19 0.72-0.49 1.29-0.91l-1.77-8.51c-1.56 1.31-3.11 2.75-4.64 4.33s-2.92 3.24-4.16 5c-1.24 1.75-2.24 3.61-2.99 5.57s-1.12 4.02-1.12 6.19c0 2.01 0.42 3.9 1.27 5.67 0.84 1.77 1.97 3.31 3.37 4.61 1.4 1.31 3.02 2.34 4.85 3.09s3.69 1.12 5.57 1.12c0.06 0 0.36-0.03 0.88-0.1 0.53-0.06 1.08-0.14 1.67-0.24s1.13-0.2 1.63-0.31c0.49-0.11 0.74-0.23 0.74-0.36l-0.29-1.34c-1.24-6.29-2.42-12.3-3.53-18.04zm1.67-0.19l3.92 18.99c2.26-0.86 3.79-2.34 4.59-4.42 0.8-2.09 0.98-4.21 0.55-6.36s-1.44-4.06-3.04-5.72c-1.59-1.66-3.59-2.49-6.02-2.49zm-5.02-25.59c0.99-0.51 1.9-1.28 2.75-2.3 0.84-1.02 1.63-2.11 2.34-3.28 0.72-1.16 1.34-2.35 1.86-3.56 0.53-1.21 0.95-2.31 1.27-3.3 0.35-1.05 0.59-2.23 0.72-3.54s-0.08-2.41-0.62-3.3c-0.38-0.8-0.88-1.26-1.51-1.39-0.62-0.13-1.24-0.08-1.87 0.14-0.62 0.22-1.21 0.58-1.77 1.08-0.56 0.49-0.96 0.93-1.22 1.32-0.7 1.24-1.32 2.63-1.84 4.16-0.53 1.53-0.88 3.12-1.08 4.76-0.19 1.64-0.22 3.22-0.07 4.73 0.16 1.52 0.5 3.02 1.04 4.48zm-1.43 1.48c-0.54-2.1-1.02-4.17-1.43-6.19s-0.62-4.1-0.62-6.24c0-1.56 0.11-3.28 0.33-5.14s0.63-3.68 1.22-5.45 1.4-3.36 2.44-4.76 2.41-2.42 4.14-3.06c0.16-0.06 0.32-0.1 0.48-0.1 0.22 0 0.49 0.13 0.79 0.38s0.62 0.63 0.96 1.12c0.33 0.49 0.63 1 0.88 1.53s0.45 0.88 0.57 1.08c0.86 1.63 1.49 3.36 1.89 5.19s0.63 3.66 0.69 5.48c0.13 2.74-0.02 5.45-0.45 8.13s-1.3 5.29-2.61 7.84c-0.45 0.77-0.9 1.54-1.36 2.32s-1.01 1.54-1.65 2.27l-0.69 0.69-1.03 1.03s-0.66 0.68-0.93 0.98-0.41 0.49-0.41 0.55l1.96 9.56c0.01 0.06 0.98 0 0.98 0 1.87 0.02 3.85 0.33 5.57 1 1.66 0.77 3.08 1.82 4.28 3.16s2.15 2.85 2.87 4.52 1.08 3.37 1.08 5.09-0.26 3.48-0.77 5.26c-1.31 3.38-3.4 5.88-6.26 7.51-0.32 0.19-0.77 0.41-1.36 0.65s-0.82 0.61-0.69 1.12c0.77 3.47 1.28 5.86 1.55 7.17s0.47 3 0.6 5.07c0.13 1.98-0.22 3.76-1.03 5.35-0.81 1.6-1.9 2.9-3.28 3.9-1.37 1.01-2.62 1.59-3.75 1.77s-1.91 0.26-2.32 0.26c-1.43 0-2.84-0.27-4.21-0.81-1.69-0.63-3.11-1.61-4.26-2.91-1.15-1.31-1.72-2.9-1.72-4.78 0-1.18 0.34-2.4 1.03-3.64s1.59-2.14 2.7-2.67c1.24-0.64 2.37-0.81 3.37-0.53 1 0.29 1.83 0.83 2.49 1.63 0.65 0.8 1.11 1.76 1.36 2.89s0.24 2.19-0.05 3.18-0.87 1.83-1.75 2.51c-0.88 0.69-2.1 1-3.66 0.94 0.64 1.15 1.53 1.87 2.68 2.17 1.15 0.31 2.33 0.33 3.54 0.07 1.21-0.25 2.35-0.72 3.42-1.41 1.07-0.68 1.91-1.42 2.51-2.22 0.38-0.57 0.67-1.32 0.86-2.25s0.3-1.89 0.33-2.9c0.03-1 0-1.79-0.1-2.34-0.1-0.56-0.26-1.43-0.48-2.61-0.96-3.86-1.56-6.28-1.82-7.27-0.13-0.32-0.47-0.42-1.03-0.31s-1.03 0.22-1.41 0.31c-2.74 0.36-5.04 0.19-6.89-0.47-2.87-0.77-5.4-2.13-7.58-4.09s-3.94-4.34-5.26-7.13c-1.31-2.78-1.97-4.9-1.97-6.35v-2.75c0-2.58 0.45-5.01 1.34-7.27 1.69-3.54 3.69-6.79 6-9.76 2.31-2.96 4.95-5.72 7.92-8.27z"/>
</g>
</svg>
