<?xml version="1.0" encoding="utf-8"?>
<!-- Generator: Adobe Illustrator 23.0.0, SVG Export Plug-In . SVG Version: 6.00 Build 0)  -->
<svg version="1.1" id="Layer_1" xmlns="http://www.w3.org/2000/svg" xmlns:xlink="http://www.w3.org/1999/xlink" x="0px" y="0px"
	 viewBox="0 0 87.3 100" style="enable-background:new 0 0 87.3 100;" xml:space="preserve">
<g>
	<path d="M49.32,29.7c0.31-5.13-0.55-9.96-2.62-14.52c-2.05-4.52-5.23-7.97-10.01-9.74c-3.29-1.22-6.65-1.37-10.06-0.73
		c-4.57,0.86-8.72,2.65-12.25,5.75c-1.32,1.16-2.51,2.46-3.13,4.12c-0.39,1.05-0.59,2.23-0.62,3.36c-0.03,1.26,0.52,1.79,1.79,1.84
		c2.02,0.08,4.05,0.06,6.08,0.02c2.14-0.04,4.18,0.33,6.1,1.3c3.24,1.64,5.2,4.31,5.75,7.83c0.19,1.22-0.16,2.75-0.78,3.85
		c-2.7,4.81-8.1,7.26-13.65,6.55c-4.67-0.59-8.48-2.64-11.33-6.37c-1.32-1.73-1.96-3.73-2-5.97C2.49,21.69,3.88,16.84,7,12.52
		c3.08-4.27,7.33-7.02,12.04-9.2c4.24-1.96,8.72-2.88,13.32-3.23c3.08-0.24,6.15,0.08,9.16,0.78c8.9,2.08,15.82,6.99,20.62,14.78
		c2.05,3.33,3.32,6.98,4.07,10.83c1.55,7.97,0.11,15.55-2.96,22.91c-2.19,5.22-5.21,9.99-8.89,14.24c-4.46,5.15-9.5,9.76-14.9,13.94
		c-5.8,4.49-11.88,8.55-18.2,12.26c-3.06,1.79-6.09,3.65-9.22,5.31c-2.94,1.55-5.99,2.91-9.02,4.3c-0.68,0.31-1.45,0.48-2.19,0.55
		c-0.79,0.07-1.05-0.43-0.63-1.11c0.28-0.46,0.62-0.9,1.03-1.26c1.97-1.75,3.88-3.59,5.98-5.17c4.27-3.23,8.75-6.2,12.98-9.49
		c6.23-4.85,11.78-10.42,16.45-16.82c1.17-1.6,2.14-3.35,3.24-5.01c2.64-3.98,4.53-8.32,6.11-12.81
		C48.11,42.25,49.52,36.06,49.32,29.7z"/>
	<path d="M79.56,10.66c4.17-0.01,7.46,3.44,7.46,7.83c0,4.12-3.46,7.7-7.44,7.69c-3.96-0.01-7.37-3.52-7.4-7.62
		C72.15,14.15,75.4,10.67,79.56,10.66z"/>
	<path d="M79.78,36.75c4.23-0.03,7.49,3.33,7.52,7.76c0.03,4.11-3.35,7.71-7.25,7.74c-4.24,0.03-7.52-3.37-7.56-7.85
		C72.45,40.26,75.77,36.77,79.78,36.75z"/>
</g>
</svg>
