<?xml version="1.0" encoding="UTF-8"?>
<svg enable-background="new 0 0 87.3 100" version="1.1" viewBox="0 0 87.3 100" xml:space="preserve" xmlns="http://www.w3.org/2000/svg">
	<path d="m49.32 29.7c0.31-5.13-0.55-9.96-2.62-14.52-2.05-4.52-5.23-7.97-10.01-9.74-3.29-1.22-6.65-1.37-10.06-0.73-4.57 0.86-8.72 2.65-12.25 5.75-1.32 1.16-2.51 2.46-3.13 4.12-0.39 1.05-0.59 2.23-0.62 3.36-0.03 1.26 0.52 1.79 1.79 1.84 2.02 0.08 4.05 0.06 6.08 0.02 2.14-0.04 4.18 0.33 6.1 1.3 3.24 1.64 5.2 4.31 5.75 7.83 0.19 1.22-0.16 2.75-0.78 3.85-2.7 4.81-8.1 7.26-13.65 6.55-4.67-0.59-8.48-2.64-11.33-6.37-1.32-1.73-1.96-3.73-2-5.97-0.1-5.3 1.29-10.15 4.41-14.47 3.08-4.27 7.33-7.02 12.04-9.2 4.24-1.96 8.72-2.88 13.32-3.23 3.08-0.24 6.15 0.08 9.16 0.78 8.9 2.08 15.82 6.99 20.62 14.78 2.05 3.33 3.32 6.98 4.07 10.83 1.55 7.97 0.11 15.55-2.96 22.91-2.19 5.22-5.21 9.99-8.89 14.24-4.46 5.15-9.5 9.76-14.9 13.94-5.8 4.49-11.88 8.55-18.2 12.26-3.06 1.79-6.09 3.65-9.22 5.31-2.94 1.55-5.99 2.91-9.02 4.3-0.68 0.31-1.45 0.48-2.19 0.55-0.79 0.07-1.05-0.43-0.63-1.11 0.28-0.46 0.62-0.9 1.03-1.26 1.97-1.75 3.88-3.59 5.98-5.17 4.27-3.23 8.75-6.2 12.98-9.49 6.23-4.85 11.78-10.42 16.45-16.82 1.17-1.6 2.14-3.35 3.24-5.01 2.64-3.98 4.53-8.32 6.11-12.81 2.12-6.07 3.53-12.26 3.33-18.62z"/>
	<path d="m79.56 10.66c4.17-0.01 7.46 3.44 7.46 7.83 0 4.12-3.46 7.7-7.44 7.69-3.96-0.01-7.37-3.52-7.4-7.62-0.03-4.41 3.22-7.89 7.38-7.9z"/>
	<path d="m79.78 36.75c4.23-0.03 7.49 3.33 7.52 7.76 0.03 4.11-3.35 7.71-7.25 7.74-4.24 0.03-7.52-3.37-7.56-7.85-0.04-4.14 3.28-7.63 7.29-7.65z"/>
</svg>
