<?xml version="1.0" encoding="utf-8"?>
<!-- Generator: Adobe Illustrator 23.0.0, SVG Export Plug-In . SVG Version: 6.00 Build 0)  -->
<svg version="1.1" id="Layer_1" xmlns="http://www.w3.org/2000/svg" xmlns:xlink="http://www.w3.org/1999/xlink" x="0px" y="0px"
	 viewBox="0 0 29.36 100.07" style="enable-background:new 0 0 29.36 100.07;" xml:space="preserve">
<style type="text/css">
	.st0{fill:#FFFFFF;}
</style>
<path class="st0" d="M27.47,77.59c-10.5-4.97-22.5-0.34-26.65,9.48c-2.45,5.82,0.86,11.98,6.87,12.79
	c11.14,1.51,21.35-7.08,21.44-18.26c0.15-19.12,0.16-38.23,0.22-57.35c0.02-8.07,0-16.15,0-24.22c-0.62,0.01-1.25,0.02-1.88,0.03
	C27.47,25.68,27.47,51.29,27.47,77.59z"/>
<path d="M27.47,77.61c0-26.31,0-51.95,0-77.58C28.1,0.02,28.72,0.01,29.35,0c0,8.08,0.02,16.16,0,24.24
	c-0.05,19.13-0.07,38.26-0.22,57.39c-0.09,11.18-10.3,19.79-21.44,18.27c-6.01-0.82-9.33-6.99-6.87-12.8
	C4.97,77.27,16.97,72.64,27.47,77.61z"/>
</svg>
