<?xml version="1.0" encoding="UTF-8"?>
<svg enable-background="new 0 0 29.36 100.07" version="1.1" viewBox="0 0 29.36 100.07" xml:space="preserve" xmlns="http://www.w3.org/2000/svg">
<style type="text/css">
	.st0{fill:#FFFFFF;}
</style>
<path class="st0" d="m27.47 77.59c-10.5-4.97-22.5-0.34-26.65 9.48-2.45 5.82 0.86 11.98 6.87 12.79 11.14 1.51 21.35-7.08 21.44-18.26 0.15-19.12 0.16-38.23 0.22-57.35 0.02-8.07 0-16.15 0-24.22-0.62 0.01-1.25 0.02-1.88 0.03v77.53z"/>
<path d="m27.47 77.61v-77.58c0.63-0.01 1.25-0.02 1.88-0.03 0 8.08 0.02 16.16 0 24.24-0.05 19.13-0.07 38.26-0.22 57.39-0.09 11.18-10.3 19.79-21.44 18.27-6.01-0.82-9.33-6.99-6.87-12.8 4.15-9.83 16.15-14.46 26.65-9.49z"/>
</svg>
